<svg xmlns="http://www.w3.org/2000/svg" viewBox="0 0 50 50">
  <!-- Body/object -->
  <ellipse cx="28" cy="25" rx="8" ry="10" fill="none" stroke="#333" stroke-width="2"/>
  <!-- Streamlines flowing around -->
  <path d="M6,15 C12,15 18,18 20,20" fill="none" stroke="#06c" stroke-width="1.5"/>
  <path d="M6,25 C12,25 16,25 20,25" fill="none" stroke="#06c" stroke-width="1.5"/>
  <path d="M6,35 C12,35 18,32 20,30" fill="none" stroke="#06c" stroke-width="1.5"/>
  <!-- Wake/turbulence behind -->
  <path d="M36,20 C40,18 44,20 46,18" fill="none" stroke="#06c" stroke-width="1"/>
  <path d="M36,25 C40,24 44,26 46,25" fill="none" stroke="#06c" stroke-width="1"/>
  <path d="M36,30 C40,32 44,30 46,32" fill="none" stroke="#06c" stroke-width="1"/>
  <!-- Drag force arrow -->
  <line x1="28" y1="40" x2="14" y2="40" stroke="#333" stroke-width="2"/>
  <polygon points="16,38 14,40 16,42" fill="#333"/>
  <text x="20" y="47" font-family="sans-serif" font-size="6" fill="#333">Fd</text>
</svg>
